<svg width="640" height="640" viewBox="0 0 640 640" fill="none" xmlns="http://www.w3.org/2000/svg">
<path d="M231.933 111.933C231.4 113.133 228.867 122.733 226.867 131.933C226.2 135.133 225.133 140.2 224.467 143.267C223.8 146.467 222.6 151.8 221.8 155.267C221 158.867 219.8 164.2 219.133 167.267C218.467 170.467 217.267 175.8 216.467 179.267C213.4 192.6 212.467 197.267 210.867 204.333C210.067 208.333 208.867 213.4 208.2 215.533C206.733 220.333 206.6 225.667 208.067 225.667C208.6 225.667 210.067 223.933 211.4 221.8C216.333 213.4 234.333 198.067 245.667 192.6C253.667 188.867 270.467 184.2 284.2 182.067C300.867 179.4 298.867 181.267 301.933 166.333C302.6 162.6 303.8 157.533 304.333 155C304.867 152.467 306.067 147.267 306.733 143.667C310.6 124.333 311.4 120.733 312.467 117.133C313.133 115.133 313.267 112.867 312.867 112.2C312.067 110.733 232.733 110.6 231.933 111.933Z" fill="#FB2D2D"/>
<path d="M323.133 117.933C322.333 121.8 321 127.533 320.333 130.6C319.533 133.8 318.333 139.133 317.533 142.6C316.733 146.2 315.533 151.533 314.867 154.6C314.2 157.8 313.133 162.867 312.333 165.933C311.667 169.133 310.733 173.667 310.333 175.933L309.4 180.333H322.6C343.667 180.333 372.067 185.933 384.867 192.6C388.2 194.333 389.4 192.867 391 185C391.667 181.267 393.533 172.6 395.133 165.667C396.6 158.733 398.333 150.333 399.133 147C399.8 143.667 400.867 138.333 401.667 135C402.467 131.667 403.533 125.933 404.2 122.333C404.867 118.6 405.667 114.733 405.933 113.667C406.333 111.933 401 111.667 365.533 111.267L324.867 111L323.133 117.933Z" fill="#FB2D2D"/>
<path d="M419.267 115.933C417.8 120.467 415.8 129.667 412.2 147C411.533 150.333 410.467 155.4 409.8 158.333C409.133 161.267 407.933 167 407 171C406.067 175 404.867 180.733 404.067 183.667C403.4 186.6 402.333 191.933 401.667 195.533L400.467 202.2L406.6 208.467C418.6 220.733 424.067 231.667 427.133 249.933C429.8 265.8 425.933 281.533 416.067 296.067C410.867 303.667 400.333 313.8 392.733 318.733C389.533 320.733 387 322.6 387 323C387 323.4 391.4 325 396.733 326.733C409 330.6 421.8 339.933 429.8 351C435.933 359.4 441.667 373 441.667 379.267C441.667 381.267 442.2 383.133 442.867 383.533C444.067 384.333 445.8 378.733 449.133 362.333C450.333 356.467 451.8 349.267 452.467 346.333C453.133 343.4 454.333 337.933 455 334.333C455.667 330.6 456.867 325 457.667 321.667C458.467 318.333 459.667 312.6 460.333 309C461.133 305.267 462.333 299.933 463 297C463.533 294.067 464.733 288.333 465.533 284.333C466.333 280.333 467.533 274.6 468.2 271.667C468.867 268.733 470.733 260.067 472.333 252.333C473.933 244.6 475.8 235.933 476.467 233C477.133 230.067 478.333 224.6 479 221C481 211.267 482.6 203.933 485.533 190.333C486.867 183.667 489.4 172.067 491 164.333C492.6 156.6 494.467 147.933 495.133 145C495.8 142.067 497 136.6 497.667 133C499.133 125.4 501 116.6 501.8 113.667C502.333 111.933 497 111.667 461.533 111.267L420.733 111L419.267 115.933Z" fill="#FB2D2D"/>
<path d="M301.267 235.933C297.133 236.6 296.067 238.467 293.8 249.667C292.067 257.8 290.6 264.333 288.467 273.933C287.667 277.533 286.333 283.133 285.533 286.6C284.733 290.2 283.533 295.533 282.867 298.6C281.267 305.933 279.4 314.6 277.533 322.6C276.733 326.2 275.533 331.533 274.867 334.6C274.2 337.8 273.133 342.867 272.467 345.933C270.733 353.933 268.733 362.733 267.133 369.667C266.467 373 265.133 379 264.2 383C263.4 387 262.2 392.067 261.533 394.2C259.667 400.333 259.933 400.467 267.8 400.067L275.267 399.667L277.533 408.333C284.2 433.133 294.6 443 315 444.067C328.467 444.733 336.867 441.4 338.067 434.733C338.6 432.333 339.533 427.667 340.333 424.333C341.133 421 342.333 415.267 343 411.667C343.667 407.933 344.867 402.333 345.667 399C346.467 395.667 347.533 389.933 348.333 386.333C349 382.6 349.933 378.467 350.333 377C351.667 372.467 341.8 362.467 332.867 359.133C325.133 356.2 306.2 355.267 301.933 357.533C300.6 358.2 297 359 293.667 359.267C288.333 359.667 287.667 359.4 287.933 357C288.067 355.533 288.867 344.733 289.667 333C290.467 321.267 291.533 308.733 292.067 305.267L293 298.867L305 298.6C318.333 298.067 322.467 296.6 331.133 288.733C340.467 280.333 344.2 268.467 341.133 256.733C336.467 239 324.067 232.6 301.267 235.933Z" fill="#FB2D2D"/>
<path d="M280.733 254.6C279.8 256.733 278.467 261.267 277.533 265C276.733 268.6 275.8 272.467 275.533 273.533C275 275.4 269.933 275.133 256.333 272.467C249.133 271 238.733 269.133 227 267C222.2 266.2 215.4 264.867 211.667 264.2C201.667 262.067 197.133 262.867 196.6 267C196.467 268.867 195.667 272.867 195 275.933C194.2 279.133 193.133 284.333 192.333 287.667C191.667 291 190.333 296.467 189.533 299.933C188.733 303.533 187.533 308.867 186.867 311.933C184.733 322.067 182.867 330.2 181.667 335C181.133 337.533 179.933 343 179 347C178.2 351 176.867 357 176.2 360.333C175.4 363.667 174.2 369 173.533 372.333C172.733 375.667 171.533 381 170.867 384.333C170.067 387.667 168.867 392.867 168.2 395.933C167.533 399.133 166.333 404.467 165.533 407.933C164.733 411.533 163.667 416.733 163 419.667C162.333 422.6 161.133 427.933 160.333 431.667C158.6 439 156.867 447.267 154.867 455.933C154.2 459.133 153.133 464.333 152.333 467.667C151.667 471 150.467 476.2 149.8 479.267C149.133 482.467 147.933 487.8 147.133 491.267C145.8 497.267 144.867 501.133 141.8 515.267C141 518.467 140.2 522.6 139.667 524.733L139 528.333L181.8 528.067L224.733 527.667L226.333 521.667C227.267 518.333 228.733 512.067 229.533 507.667C230.467 503.267 231.667 497.533 232.333 495C235.933 480.067 235.933 480.2 226.6 472.733C212.6 461.533 198.067 439.533 191.667 419.8C189.133 411.8 189.8 409.667 194.867 409.667C197.133 409.667 201.8 409.133 205.267 408.467C208.733 407.8 217.4 406.467 224.333 405.667C240.2 403.8 252.333 401.533 252.333 400.467C252.333 399.8 253.4 394.867 257.8 374.333C259.267 367.8 260.467 362.333 262.867 350.6C263.933 345.267 267.133 330.467 272.467 305C273.8 298.333 275.667 289.933 276.467 286.333C277.267 282.6 278.467 277.267 279 274.333C281.4 262.2 282.867 255.533 283.667 253.267C285.267 249.533 282.467 250.733 280.733 254.6Z" fill="#FB2D2D"/>
<path d="M425.667 452.333C421 459.533 401 479 398.2 479C397.267 479 396.333 479.533 396.067 480.067C395.667 481.267 380.467 488.733 374.333 490.733C367.267 493.133 348.333 496.733 336.467 498.067C335.4 498.2 334.067 499.8 333.667 501.667C332.333 506.2 329.933 517.133 328.867 523.267L328.067 528.333H370.067C402.067 528.333 412.333 527.933 413.267 526.6C414.067 525.8 415.133 522.867 415.667 520.333C416.2 517.8 417.133 513.267 417.8 510.333C418.467 507.4 419.533 502.333 420.2 499C421.533 491.933 426.733 467.267 428.467 459.667C430.733 449.667 431.4 445.667 430.6 445.667C430.2 445.667 428.067 448.733 425.667 452.333Z" fill="#FB2D2D"/>
<path d="M240.467 490.6C239.533 494.2 238.2 499.533 237.533 502.6C236.867 505.8 235.8 510.867 235 513.933C234.333 517.133 233.4 521.667 233 524.067L232.067 528.333L275.133 528.067L318.067 527.667L319.8 520.333C320.733 516.333 322.2 510.467 323 507.267C325.4 497.267 326.067 497.667 308.6 497.667C287.4 497.667 268.733 494.467 253.133 488.067C248.067 486.067 243.533 484.333 243 484.333C242.467 484.333 241.267 487.133 240.467 490.6Z" fill="#FB2D2D"/>
<path d="M356.771 405.732C351.277 428.885 350.884 437.126 355.593 428.885C359.125 422.606 365.404 385.718 362.657 385.718C361.872 385.718 359.125 394.744 356.771 405.732Z" fill="#FB2D2D"/>
</svg>
