<svg xmlns="http://www.w3.org/2000/svg"  viewBox="0 0 64 64" width="64px" height="64px"><path fill="#f9dd8f" d="M37,9v9.06a4.24,4.24,0,0,1-.11.94,3.7,3.7,0,0,1-.31.84l-1,2.05A2,2,0,0,1,33.76,23H30.24a2,2,0,0,1-1.79-1.11l-1-2.05a3.7,3.7,0,0,1-.31-.84,4.24,4.24,0,0,1-.11-.94V9a2,2,0,0,1,2-2h6A2,2,0,0,1,37,9Z"/><path fill="#ffeb9b" d="M29,7h6a2,2,0,0,1,2,2V9a3,3,0,0,1-3,3H30a3,3,0,0,1-3-3V9a2,2,0,0,1,2-2Z"/><path fill="#f7cc8f" d="M36.89,19a3.7,3.7,0,0,1-.31.84l-1,2.05A2,2,0,0,1,33.76,23H30.24a2,2,0,0,1-1.79-1.11l-1-2.05a3.7,3.7,0,0,1-.31-.84Z"/><path fill="#85cbf8" d="M51.47,29H49V11a2,2,0,0,0-2-2h0a2,2,0,0,0-2,2V29H19V11a2,2,0,0,0-2-2h0a2,2,0,0,0-2,2V29H12.53a2,2,0,0,0-1.93,1.47l-5.46,20A4,4,0,0,0,5,51.54V59a2,2,0,0,0,2,2H57a2,2,0,0,0,2-2V51.54a4,4,0,0,0-.14-1.05l-5.46-20A2,2,0,0,0,51.47,29Z"/><path fill="#c2cde7" d="M5 51H59V61H5z"/><path fill="#acb7d0" d="M59,60h0a1,1,0,0,1-1,1H6a1,1,0,0,1-1-1H5a4,4,0,0,1,4-4H55A4,4,0,0,1,59,60Z"/><path fill="#c2cde7" d="M49.91 47L14.09 47 14.36 45.64 15.37 40.63 16.91 33 47.09 33 48.75 41.25 49.91 47z"/><path fill="#ced9ed" d="M48.75 41.25L43 47 29 47 43 33 47.09 33 48.75 41.25zM38.57 33L28.45 43.11 24.56 47 18 47 32 33 38.57 33zM27 33L14.36 45.64 15.37 40.63 23 33 27 33z"/><path fill="#8d6c9f" d="M59.82,50.22l-5.46-20A3,3,0,0,0,51.47,28H50V11a3,3,0,0,0-6,0v1H38V9a3,3,0,0,0-3-3H30.95A13,13,0,0,0,20,0H19A13,13,0,0,0,6,13v.22A30.88,30.88,0,0,0,8.22,24.74L10,29.31a3,3,0,0,0-.42.9l-5.46,20A5,5,0,0,0,4,51.54V59a3,3,0,0,0,3,3H57a3,3,0,0,0,3-3V51.54A5,5,0,0,0,59.82,50.22ZM44,14V28H20V14h6v4.06a4.94,4.94,0,0,0,.53,2.23l1,2A3,3,0,0,0,30.24,24H31v1a1,1,0,0,0,2,0V24h.76a3,3,0,0,0,2.69-1.66l1-2A4.94,4.94,0,0,0,38,18.06V14ZM36,9v9.06a3,3,0,0,1-.32,1.34l-1,2.05a1,1,0,0,1-.9.55H30.24a1,1,0,0,1-.9-.55L28.62,20H33a1,1,0,0,0,0-2H28V9a1,1,0,0,1,1-1h6A1,1,0,0,1,36,9ZM8,13.22V13A11,11,0,0,1,19,2h1a11,11,0,0,1,8.5,4.05A3,3,0,0,0,26,9v3H20V11a3,3,0,0,0-6,0V28H12.53a3,3,0,0,0-.8.12L10.07,24A28.89,28.89,0,0,1,8,13.22Zm3.56,17.51a1,1,0,0,1,1-.74H15a1,1,0,0,0,1-1V11a1,1,0,0,1,2,0V29a1,1,0,0,0,1,1H45a1,1,0,0,0,1-1V11a1,1,0,0,1,2,0V29a1,1,0,0,0,1,1h2.47a1,1,0,0,1,1,.74L57.69,50H6.31ZM57,60H7a1,1,0,0,1-1-1V52H58v7A1,1,0,0,1,57,60Z"/><path fill="#8d6c9f" d="M32 54A2 2 0 1 0 32 58 2 2 0 1 0 32 54zM14.09 48H49.91a1 1 0 0 0 1-1.2l-2.82-14a1 1 0 0 0-1-.8H16.91a1 1 0 0 0-1 .8l-2.82 14a1 1 0 0 0 1 1.2zm2.11-6.43A1 1 0 0 0 17 42a1 1 0 0 0 1-1V39a1 1 0 0 0-1-1l-.08 0 .81-4H46.27l.81 4L47 38a1 1 0 0 0-1 1v2a1 1 0 0 0 1 1 1 1 0 0 0 .8-.43L48.69 46H15.31z"/><path fill="#8d6c9f" d="M22 38a1 1 0 0 0-1 1v2a1 1 0 0 0 2 0V39A1 1 0 0 0 22 38zM27 38a1 1 0 0 0-1 1v2a1 1 0 0 0 2 0V39A1 1 0 0 0 27 38zM32 38a1 1 0 0 0-1 1v2a1 1 0 0 0 2 0V39A1 1 0 0 0 32 38zM37 38a1 1 0 0 0-1 1v2a1 1 0 0 0 2 0V39A1 1 0 0 0 37 38zM42 38a1 1 0 0 0-1 1v2a1 1 0 0 0 2 0V39A1 1 0 0 0 42 38z"/></svg>