<svg xmlns="http://www.w3.org/2000/svg"  viewBox="0 0 128 128" width="64px" height="64px"><path fill="#e6e7e8" d="M86.432,12.254c-0.19-0.216-0.463-0.34-0.751-0.34c0,0-0.001,0-0.001,0c-0.288,0-0.562,0.125-0.751,0.342 c-1.237,1.415-24.143,27.79-34.207,50.455c-4.229-2.15-8.896-3.291-13.707-3.291c-0.001,0-0.001,0-0.002,0 c-8.101,0-15.719,3.155-21.447,8.884C9.836,74.032,6.681,81.65,6.681,89.753c0,16.726,13.607,30.333,30.333,30.333 c8.886,0,16.892-3.841,22.444-9.949c6.994,6.184,16.174,9.949,26.222,9.949c21.856,0,39.638-17.781,39.638-39.638 C125.319,56.765,88.02,14.061,86.432,12.254z"/><path fill="#fa759e" d="M81.681,8.914c0,0-24.469,28-34.462,51.189c0.794,0.441,1.573,0.904,2.32,1.414l12.309-2.937l-4.126,11.37 c2.924,4.562,4.626,9.982,4.626,15.802c0,7.241-2.629,13.864-6.977,18.98c6.899,6.42,16.143,10.353,26.31,10.353 c21.339,0,38.638-17.299,38.638-38.638C120.319,52.869,81.681,8.914,81.681,8.914z"/><path fill="#fff" d="M81.681,112.086c-9.547,0-18.297-3.319-25.124-8.834c-0.377,0.507-0.775,0.998-1.183,1.479 c6.896,6.422,16.139,10.356,26.308,10.356c18.317,0,33.645-12.75,37.623-29.856C114.21,100.806,99.295,112.086,81.681,112.086z"/><circle cx="103.468" cy="98.46" r="2.654" fill="#fff"/><path fill="#fff" d="M108.025,95.149c-0.361,0-0.726-0.098-1.054-0.302c-0.938-0.583-1.226-1.816-0.642-2.755 c3.629-5.834,4.893-13.298,3.756-22.182c-0.14-1.096,0.634-2.098,1.73-2.237c1.104-0.148,2.098,0.634,2.238,1.729 c1.256,9.821-0.199,18.166-4.328,24.803C109.347,94.814,108.693,95.149,108.025,95.149z"/><g><path fill="#0089ef" d="M33.015,56.419c6.13,0,11.818,1.883,16.524,5.098l12.309-2.937l-4.126,11.37 c2.924,4.562,4.626,9.982,4.626,15.802c0,16.2-13.133,29.333-29.333,29.333c-16.2,0-29.333-13.133-29.333-29.333 S16.814,56.419,33.015,56.419z"/><circle cx="43.973" cy="88.289" r="10.375" fill="#fa759e"/><circle cx="43.973" cy="88.289" r="4" fill="#ffd7e5"/><circle cx="23.796" cy="97.045" r="6.543" fill="#fa759e"/><circle cx="23.796" cy="97.045" r="2.522" fill="#ffd7e5"/><g><circle cx="25.426" cy="75.508" r="8.172" fill="#fa759e"/><path fill="#3a2c60" d="M103.21,38.889c0.192,0.291,0.511,0.449,0.835,0.449c0.189,0,0.38-0.054,0.55-0.165 c0.461-0.305,0.588-0.925,0.284-1.386c-1.615-2.447-3.365-4.993-5.202-7.566c-0.32-0.449-0.945-0.554-1.395-0.232 c-0.45,0.32-0.554,0.945-0.233,1.395C99.873,33.937,101.609,36.462,103.21,38.889z"/><path fill="#3a2c60" d="M107.398,41.692c-0.294-0.469-0.911-0.607-1.379-0.314c-0.467,0.294-0.608,0.912-0.314,1.379 c9.034,14.359,13.614,25.695,13.614,33.691c0,20.754-16.884,37.638-37.638,37.638c-9.557,0-18.282-3.594-24.927-9.484 c4.122-5.18,6.593-11.729,6.593-18.849c0-5.643-1.561-11.136-4.519-15.922l3.959-10.909c0.125-0.346,0.051-0.732-0.194-1.007 c-0.245-0.274-0.622-0.395-0.978-0.307l-11.882,2.835c-0.403-0.267-0.819-0.506-1.231-0.752 c9.042-20.356,29.054-44.395,33.182-49.245c1.964,2.291,7.517,8.885,13.719,17.292c0.328,0.443,0.953,0.539,1.398,0.211 c0.444-0.328,0.539-0.954,0.211-1.398C89.254,16.034,82.5,8.33,82.432,8.254c-0.19-0.216-0.463-0.34-0.751-0.34 c0,0-0.001,0-0.001,0c-0.288,0-0.562,0.125-0.751,0.342c-1.237,1.415-24.137,27.793-34.199,50.459 c-4.232-2.153-8.901-3.295-13.715-3.295c-16.726,0-30.333,13.607-30.333,30.333s13.607,30.333,30.333,30.333 c8.889,0,16.897-3.844,22.45-9.956c6.993,6.185,16.168,9.956,26.216,9.956c21.856,0,39.638-17.781,39.638-39.638 C121.319,68.069,116.635,56.376,107.398,41.692z M33.015,114.086c-15.623,0-28.333-12.71-28.333-28.333 S17.392,57.42,33.015,57.42c5.726,0,11.245,1.702,15.96,4.924c0.232,0.158,0.522,0.213,0.796,0.146l10.503-2.506l-3.493,9.625 c-0.106,0.293-0.07,0.618,0.098,0.881c2.923,4.56,4.468,9.838,4.468,15.263C61.348,101.376,48.638,114.086,33.015,114.086z"/><path fill="#3a2c60" d="M43.973,76.914c-6.272,0-11.375,5.103-11.375,11.375s5.103,11.375,11.375,11.375 s11.375-5.103,11.375-11.375S50.245,76.914,43.973,76.914z M43.973,97.664c-5.169,0-9.375-4.206-9.375-9.375 s4.206-9.375,9.375-9.375s9.375,4.206,9.375,9.375S49.142,97.664,43.973,97.664z"/><path fill="#3a2c60" d="M23.796,89.503c-4.159,0-7.542,3.384-7.542,7.542c0,4.159,3.383,7.543,7.542,7.543 s7.542-3.384,7.542-7.543C31.339,92.887,27.956,89.503,23.796,89.503z M23.796,102.588c-3.056,0-5.542-2.486-5.542-5.543 c0-3.056,2.486-5.542,5.542-5.542s5.542,2.486,5.542,5.542C29.339,100.102,26.853,102.588,23.796,102.588z"/><path fill="#3a2c60" d="M25.426,66.336c-5.058,0-9.172,4.114-9.172,9.172s4.114,9.172,9.172,9.172s9.172-4.114,9.172-9.172 S30.483,66.336,25.426,66.336z M25.426,82.68c-3.955,0-7.172-3.217-7.172-7.172s3.217-7.172,7.172-7.172 s7.172,3.217,7.172,7.172S29.38,82.68,25.426,82.68z"/><circle cx="25.426" cy="75.508" r="3.151" fill="#ffd7e5"/></g></g></svg>