<svg xmlns="http://www.w3.org/2000/svg"  viewBox="0 0 100 100" width="50px" height="50px"><path fill="#f65555" d="M75.764,56.935c4.408,0,7.981-3.573,7.981-7.98c0-4.408-3.573-7.98-7.981-7.98V56.935z"/><path d="M75.764,58.061h-1.126v-2.253h1.126c3.779,0,6.854-3.075,6.854-6.854c0-3.779-3.075-6.854-6.854-6.854h-1.126v-2.253 h1.126c5.022,0,9.106,4.085,9.106,9.106C84.871,53.976,80.786,58.061,75.764,58.061z"/><path fill="#f65555" d="M61.906,25.117l13.547-2.207c0.437-0.071,0.817-0.279,1.104-0.573 c0.428-0.438,0.651-1.067,0.544-1.718l-0.673-4.128c-0.096-0.59-0.442-1.078-0.911-1.372 c-0.396-0.248-0.882-0.359-1.379-0.278l-13.547,2.207c-0.436,0.071-0.816,0.279-1.104,0.572 c-0.429,0.438-0.651,1.067-0.545,1.719l0.673,4.128c0.084,0.513,0.356,0.949,0.735,1.247 C60.774,25.049,61.331,25.211,61.906,25.117z"/><path d="M63.301,25.962c-1.084,0-2.138-0.338-3.034-0.984c-1.13-0.813-1.876-2.019-2.1-3.394 c-0.224-1.374,0.101-2.753,0.914-3.883c0.813-1.131,2.019-1.877,3.393-2.101l9.419-1.534c2.836-0.462,5.522,1.47,5.983,4.308 c0.224,1.374-0.101,2.753-0.914,3.883c-0.814,1.13-2.019,1.876-3.394,2.1l-9.418,1.535 C63.867,25.939,63.583,25.962,63.301,25.962z M63.97,24.781h0.011H63.97z M72.732,16.25c-0.158,0-0.317,0.013-0.478,0.038 l-9.418,1.535c-1.611,0.263-2.708,1.788-2.446,3.399c0.263,1.611,1.784,2.702,3.398,2.447l9.418-1.535 c0.781-0.128,1.465-0.551,1.927-1.192c0.463-0.642,0.647-1.425,0.52-2.206C75.417,17.285,74.157,16.25,72.732,16.25z"/><path fill="#f65555" d="M22.873,59.373l0.928-13.693c0.047-0.692-0.265-1.325-0.776-1.718 c-0.302-0.232-0.673-0.381-1.081-0.409l-4.173-0.283c-0.55-0.037-1.063,0.152-1.448,0.488 c-0.385,0.336-0.642,0.819-0.679,1.368L14.717,58.82c-0.034,0.499,0.118,0.967,0.398,1.336 c0.337,0.446,0.858,0.749,1.459,0.79l4.173,0.283c0.648,0.044,1.245-0.227,1.641-0.682 C22.664,60.231,22.842,59.824,22.873,59.373z"/><path d="M18.944,62.224c-0.12,0-0.24-0.004-0.361-0.013c-2.867-0.194-5.043-2.685-4.849-5.554l0.646-9.521 c0.094-1.389,0.723-2.659,1.773-3.575c1.048-0.915,2.388-1.373,3.782-1.273c1.389,0.094,2.658,0.723,3.575,1.772 c0.916,1.049,1.368,2.392,1.274,3.782l-0.645,9.521c-0.094,1.389-0.724,2.658-1.773,3.575 C21.407,61.773,20.204,62.224,18.944,62.224z M19.577,44.528c-0.716,0-1.399,0.255-1.943,0.73 c-0.596,0.52-0.954,1.241-1.007,2.03l-0.645,9.521c-0.11,1.629,1.125,3.044,2.754,3.155c0.787,0.05,1.552-0.204,2.148-0.724 c0.596-0.52,0.953-1.241,1.007-2.03l0.645-9.521c0.053-0.79-0.203-1.553-0.723-2.148c-0.52-0.596-1.241-0.954-2.03-1.007 C19.713,44.53,19.645,44.528,19.577,44.528z M23.014,57.286h0.011H23.014z"/><path fill="#f65555" d="M14.849,79.844c0-2.799,3.026-5.068,6.758-5.068c3.732,0,6.757,2.269,6.757,5.068 c0,2.799-3.025,5.068-6.757,5.068C17.874,84.912,14.849,82.643,14.849,79.844z"/><path d="M21.606,86.038c-4.348,0-7.884-2.779-7.884-6.195c0-3.415,3.536-6.195,7.884-6.195c4.347,0,7.884,2.779,7.884,6.195 C29.49,83.259,25.954,86.038,21.606,86.038z M21.606,75.902c-3.053,0-5.631,1.805-5.631,3.942 c0,2.137,2.578,3.942,5.631,3.942c3.053,0,5.632-1.805,5.632-3.942C27.238,77.707,24.659,75.902,21.606,75.902z"/><path d="M77.414,28.518l1.588-1.588l1.599,1.588l-1.599,1.599C77.414,28.518,79.002,30.118,77.414,28.518z"/><path d="M38.939,30.703l1.588-1.599l1.599,1.599l-1.599,1.588C38.939,30.703,40.528,32.291,38.939,30.703z"/><path d="M20.018,37.337l1.588-1.588l1.587,1.588l-1.587,1.599C20.018,37.337,21.606,38.936,20.018,37.337z"/><path d="M39.987,19.655l1.599-1.588l1.588,1.588l-1.588,1.599C39.987,19.655,41.586,21.254,39.987,19.655z"/><path d="M51.25,17.402l1.599-1.588l1.588,1.588l-1.588,1.588C51.25,17.402,52.849,18.99,51.25,17.402z"/><path d="M17.472,68.851l1.588-1.599l1.588,1.599l-1.588,1.588C17.472,68.851,19.061,70.439,17.472,68.851z"/><path d="M20.739,65.573l1.587-1.587l1.6,1.599l-1.6,1.588C20.739,65.573,22.326,67.173,20.739,65.573z"/><path d="M42.532,76.476l1.599-1.588l1.588,1.588l-1.588,1.599C42.532,76.476,44.132,78.075,42.532,76.476z"/><path d="M36,80.835l1.588-1.588l1.587,1.588l-1.587,1.599C36,80.835,37.588,82.434,36,80.835z"/><path d="M83.078,37.169l1.6-1.599l1.588,1.599l-1.588,1.588C83.078,37.169,84.678,38.756,83.078,37.169z"/><path d="M83.09,64.199l1.588-1.599l1.599,1.599l-1.599,1.588C83.09,64.199,84.678,65.787,83.09,64.199z"/><path d="M33.533,74.336l1.588-1.588l1.588,1.588l-1.588,1.588C33.533,74.336,35.122,75.924,33.533,74.336z"/><path d="M56.047,82.22l1.6-1.599l1.599,1.599l-1.599,1.588C56.047,82.22,57.647,83.808,56.047,82.22z"/><path d="M79.598,17.627l1.588-1.599l1.599,1.599l-1.599,1.588C79.598,17.627,81.187,19.215,79.598,17.627z"/><path fill="#f65555" d="M22.265,15.874c-5.419,1.97-8.564,6.996-7.026,11.227c1.538,4.231,7.178,6.064,12.596,4.095 c5.419-1.969,8.564-6.996,7.026-11.227C33.322,15.737,27.683,13.904,22.265,15.874z"/><path d="M23.467,33.106c-4.267,0-8.003-2.091-9.287-5.621c-1.747-4.808,1.707-10.492,7.699-12.67l0,0 c5.996-2.179,12.291-0.039,14.039,4.768c0.865,2.379,0.507,5.023-1.008,7.444c-1.46,2.333-3.836,4.189-6.691,5.227 C26.627,32.832,25.012,33.106,23.467,33.106z M22.649,16.932c-4.826,1.754-7.675,6.143-6.353,9.783 c1.323,3.642,6.328,5.179,11.152,3.421c2.386-0.867,4.358-2.396,5.552-4.304c1.139-1.82,1.423-3.766,0.8-5.479 C32.479,16.712,27.477,15.179,22.649,16.932L22.649,16.932z"/><path d="M22.544,27.536l-1.07-0.348c-1.031-0.335-1.742-0.913-2.001-1.627c-0.08-0.222-0.119-0.448-0.119-0.692 c0-1.524,1.56-3.711,4.45-4.761c1.657-0.601,3.413-0.685,4.821-0.228c1.031,0.336,1.742,0.913,2.001,1.627l0.384,1.059 l-2.118,0.768l-0.384-1.059c0,0.027-0.188-0.126-0.58-0.253c-0.939-0.306-2.162-0.232-3.355,0.202 c-2.064,0.75-2.852,2.098-2.955,2.555c0.088,0.068,0.265,0.174,0.551,0.267l1.071,0.349L22.544,27.536z"/><path fill="#f65555" d="M77.262,84.12c5.419-1.969,8.564-6.996,7.026-11.227c-1.538-4.231-7.178-6.064-12.596-4.094 c-5.419,1.969-8.564,6.996-7.026,11.227C66.205,84.257,71.844,86.09,77.262,84.12z"/><path d="M72.895,86.032c-4.268,0-8.004-2.092-9.287-5.621c-0.865-2.38-0.507-5.023,1.008-7.444 c1.46-2.332,3.836-4.189,6.691-5.227c5.992-2.178,12.29-0.04,14.039,4.768c1.747,4.808-1.707,10.492-7.7,12.671l0,0 C76.054,85.758,74.439,86.032,72.895,86.032z M77.263,84.12h0.011H77.263z M76.101,69.131c-1.299,0-2.668,0.233-4.024,0.727 c-2.385,0.866-4.357,2.395-5.552,4.304c-1.139,1.82-1.423,3.766-0.8,5.479c1.323,3.64,6.326,5.176,11.152,3.421 c4.826-1.754,7.675-6.144,6.352-9.783C82.279,70.661,79.424,69.131,76.101,69.131z"/><path d="M72.86,80.406c-0.693,0-1.357-0.096-1.958-0.292c-1.031-0.335-1.742-0.913-2.001-1.628l-0.384-1.059l2.118-0.767 l0.384,1.058c0.002-0.029,0.188,0.125,0.58,0.253c0.939,0.305,2.161,0.231,3.355-0.202c2.064-0.75,2.852-2.098,2.955-2.554 c-0.088-0.068-0.265-0.174-0.551-0.267l-1.071-0.349l0.697-2.142l1.07,0.348c1.031,0.336,1.742,0.914,2.001,1.628 c0.08,0.222,0.119,0.448,0.119,0.692c0,1.524-1.56,3.71-4.45,4.761C74.773,80.231,73.791,80.406,72.86,80.406z"/><path fill="#fff" d="M52.518,27.307L52.518,27.307c1.262-0.707,2.843-0.457,3.825,0.606l0,0 c0.739,0.799,1.84,1.157,2.907,0.944l0,0c1.418-0.283,2.845,0.444,3.45,1.758l0,0c0.455,0.988,1.392,1.669,2.473,1.796l0,0 c1.436,0.169,2.568,1.302,2.738,2.738l0,0c0.128,1.081,0.808,2.017,1.797,2.473l0,0c1.313,0.605,2.041,2.032,1.758,3.45l0,0 c-0.212,1.068,0.145,2.169,0.945,2.907l0,0c1.062,0.981,1.313,2.563,0.605,3.825l0,0c-0.532,0.949-0.532,2.108,0,3.057l0,0 c0.707,1.262,0.456,2.844-0.605,3.825l0,0c-0.8,0.739-1.157,1.84-0.945,2.907l0,0c0.283,1.418-0.444,2.845-1.758,3.45l0,0 c-0.988,0.455-1.669,1.392-1.797,2.473l0,0c-0.169,1.437-1.302,2.569-2.738,2.738l0,0c-1.081,0.128-2.018,0.808-2.473,1.797l0,0 c-0.605,1.313-2.032,2.041-3.45,1.758l0,0c-1.068-0.213-2.169,0.145-2.907,0.945l0,0c-0.981,1.062-2.563,1.313-3.825,0.606l0,0 c-0.949-0.532-2.107-0.532-3.056,0l0,0c-1.262,0.707-2.843,0.456-3.825-0.606l0,0c-0.739-0.8-1.84-1.158-2.907-0.945l0,0 c-1.419,0.283-2.845-0.444-3.45-1.758l0,0c-0.455-0.989-1.392-1.669-2.473-1.797l0,0c-1.436-0.169-2.569-1.302-2.738-2.738l0,0 c-0.128-1.081-0.808-2.017-1.797-2.473l0,0c-1.313-0.605-2.041-2.032-1.758-3.45l0,0c0.212-1.068-0.145-2.169-0.945-2.907l0,0 c-1.062-0.981-1.313-2.563-0.605-3.825l0,0c0.532-0.949,0.532-2.108,0-3.057l0,0c-0.707-1.261-0.457-2.843,0.605-3.825l0,0 c0.8-0.738,1.157-1.84,0.945-2.907l0,0c-0.283-1.418,0.444-2.845,1.758-3.45l0,0c0.989-0.455,1.669-1.392,1.797-2.473l0,0 c0.169-1.436,1.302-2.569,2.738-2.738l0,0c1.081-0.127,2.018-0.808,2.473-1.796l0,0c0.605-1.314,2.032-2.041,3.45-1.758l0,0 c1.067,0.213,2.169-0.145,2.907-0.944l0,0c0.981-1.063,2.563-1.313,3.825-0.606l0,0C50.411,27.84,51.568,27.84,52.518,27.307z"/><path d="M54.05,72.89c-0.71,0-1.427-0.179-2.083-0.547c-0.604-0.338-1.353-0.338-1.956,0.001 c-1.723,0.965-3.862,0.626-5.202-0.824c-0.469-0.508-1.181-0.737-1.86-0.604c-1.936,0.385-3.868-0.597-4.693-2.391 c-0.289-0.629-0.896-1.069-1.582-1.15c-1.961-0.231-3.493-1.763-3.724-3.724c-0.081-0.686-0.521-1.293-1.15-1.582 c-1.794-0.826-2.777-2.756-2.391-4.693c0.135-0.678-0.096-1.391-0.604-1.86c-1.451-1.34-1.79-3.48-0.824-5.203 c0.338-0.603,0.338-1.352-0.001-1.955c-0.965-1.723-0.626-3.863,0.825-5.203c0.508-0.469,0.739-1.181,0.604-1.86 c-0.387-1.937,0.597-3.867,2.391-4.693c0.629-0.289,1.069-0.896,1.15-1.582c0.231-1.962,1.762-3.493,3.724-3.725 c0.687-0.081,1.293-0.521,1.582-1.149c0.826-1.794,2.757-2.775,4.693-2.392c0.679,0.136,1.39-0.096,1.86-0.604 c1.341-1.45,3.481-1.789,5.202-0.823c0.604,0.337,1.352,0.336,1.955,0h0.001c1.722-0.966,3.862-0.629,5.203,0.824 c0.468,0.507,1.179,0.738,1.859,0.604c1.934-0.387,3.867,0.597,4.693,2.391c0.289,0.628,0.895,1.069,1.582,1.149 c1.961,0.232,3.493,1.763,3.725,3.725c0.081,0.687,0.521,1.293,1.15,1.582c1.794,0.826,2.777,2.756,2.391,4.693 c-0.135,0.678,0.096,1.391,0.604,1.86c1.452,1.339,1.79,3.479,0.824,5.202c-0.338,0.603-0.338,1.352,0,1.955 c0.966,1.723,0.627,3.863-0.824,5.203c-0.508,0.469-0.739,1.182-0.604,1.86c0.387,1.937-0.597,3.867-2.391,4.693 c-0.628,0.289-1.069,0.895-1.15,1.582c-0.231,1.961-1.763,3.493-3.725,3.724c-0.686,0.081-1.293,0.521-1.582,1.15 c-0.826,1.794-2.754,2.779-4.693,2.391c-0.68-0.135-1.39,0.097-1.86,0.604C56.34,72.418,55.204,72.889,54.05,72.89z M50.989,69.84 c0.719,0,1.438,0.179,2.079,0.538c0.811,0.455,1.817,0.294,2.446-0.387c0.998-1.081,2.515-1.574,3.955-1.285 c0.917,0.179,1.819-0.281,2.207-1.125c0.615-1.335,1.904-2.271,3.364-2.444c0.923-0.109,1.642-0.829,1.751-1.751 c0.172-1.46,1.109-2.75,2.444-3.364c0.844-0.389,1.307-1.296,1.125-2.207c-0.287-1.442,0.205-2.957,1.285-3.954 c0.682-0.631,0.841-1.637,0.388-2.448c-0.719-1.282-0.719-2.875,0-4.158c0.454-0.81,0.295-1.816-0.387-2.446 c-1.08-0.998-1.572-2.514-1.285-3.955c0.182-0.911-0.281-1.819-1.125-2.208c-1.335-0.615-2.271-1.903-2.444-3.364 c-0.109-0.923-0.828-1.643-1.751-1.752c-1.46-0.173-2.749-1.109-3.364-2.444c-0.389-0.844-1.296-1.306-2.207-1.125 c-1.442,0.286-2.957-0.205-3.955-1.285c-0.63-0.683-1.637-0.843-2.446-0.388l0,0c-1.283,0.719-2.876,0.719-4.159,0 c-0.809-0.454-1.817-0.295-2.447,0.388c-0.998,1.08-2.511,1.57-3.954,1.284c-0.915-0.177-1.819,0.282-2.208,1.125 c-0.615,1.335-1.904,2.271-3.364,2.444c-0.922,0.109-1.642,0.829-1.751,1.752c-0.173,1.46-1.109,2.749-2.444,3.364 c-0.844,0.389-1.306,1.296-1.124,2.208c0.287,1.442-0.205,2.956-1.285,3.954c-0.682,0.63-0.842,1.637-0.388,2.447 c0.719,1.283,0.719,2.875,0,4.157c-0.455,0.811-0.295,1.817,0.387,2.448c1.08,0.996,1.573,2.512,1.285,3.954 c-0.182,0.911,0.281,1.818,1.125,2.207c1.335,0.615,2.272,1.904,2.444,3.364c0.109,0.922,0.829,1.642,1.751,1.751 c1.46,0.172,2.749,1.109,3.364,2.444c0.389,0.843,1.292,1.306,2.208,1.124c1.442-0.286,2.957,0.206,3.954,1.286 c0.63,0.682,1.636,0.841,2.447,0.387C49.552,70.019,50.27,69.84,50.989,69.84z"/><path fill="#fff" d="M54.998,33.292L54.998,33.292c0.553,0.598,1.378,0.867,2.177,0.707l0,0 c1.062-0.212,2.131,0.333,2.584,1.317l0,0c0.341,0.74,1.042,1.25,1.852,1.345l0,0L54.998,33.292z"/><path d="M62.597,37.912l-1.118-0.132c-1.19-0.14-2.241-0.904-2.743-1.993c-0.235-0.512-0.782-0.793-1.341-0.684 c-1.176,0.236-2.411-0.167-3.224-1.047l-0.764-0.828l1.655-1.528l0.763,0.827c0.286,0.309,0.719,0.449,1.13,0.367 c1.581-0.318,3.154,0.486,3.827,1.95c0.175,0.382,0.544,0.649,0.961,0.699l1.119,0.133L62.597,37.912z"/><path fill="#fff" d="M38.317,38.712L38.317,38.712c0.126-1.076,0.975-1.924,2.05-2.051l0,0 c0.81-0.095,1.511-0.605,1.852-1.345l0,0c0.453-0.984,1.522-1.528,2.584-1.317l0,0c0.8,0.16,1.624-0.109,2.178-0.707l0,0 c0.735-0.796,1.919-0.983,2.864-0.454l0,0L38.317,38.712z"/><path d="M39.303,39.963l-2.237-0.264l0.132-1.119c0.189-1.599,1.438-2.848,3.038-3.037c0.416-0.049,0.784-0.317,0.96-0.699 c0.674-1.463,2.25-2.262,3.827-1.95c0.415,0.086,0.845-0.059,1.13-0.367c1.093-1.183,2.839-1.458,4.242-0.671l0.983,0.55 l-1.102,1.965l-0.982-0.551c-0.493-0.276-1.103-0.178-1.486,0.235c-0.815,0.881-2.05,1.284-3.226,1.048 c-0.551-0.11-1.104,0.171-1.34,0.684c-0.502,1.089-1.552,1.852-2.743,1.993c-0.56,0.066-0.998,0.503-1.064,1.064L39.303,39.963z"/><path fill="#fff" d="M34.494,48.189L34.494,48.189c-0.529-0.945-0.342-2.13,0.454-2.864l0,0 c0.599-0.553,0.867-1.378,0.707-2.177l0,0L34.494,48.189z"/><path d="M34.062,49.722l-0.551-0.982c-0.788-1.405-0.512-3.15,0.672-4.243c0.309-0.284,0.449-0.717,0.367-1.129l-0.221-1.104 l2.209-0.441l0.22,1.104c0.235,1.176-0.167,2.413-1.048,3.226c-0.415,0.383-0.512,0.994-0.235,1.486l0.551,0.982L34.062,49.722z"/><path fill="#fff" d="M36.971,58.104L36.971,58.104c-0.983-0.453-1.528-1.521-1.317-2.584l0,0 c0.16-0.799-0.108-1.624-0.707-2.177l0,0L36.971,58.104z"/><path d="M37.523,59.598L36.5,59.127c-1.463-0.674-2.264-2.247-1.95-3.827c0.083-0.412-0.058-0.845-0.367-1.131l-0.827-0.763 l1.528-1.655l0.828,0.764c0.881,0.813,1.282,2.049,1.047,3.225c-0.109,0.553,0.171,1.105,0.684,1.341l1.023,0.471L37.523,59.598z"/><g><path fill="#fff" d="M54.998,65.376L54.998,65.376c-0.735,0.796-1.919,0.983-2.864,0.454l0,0 c-0.711-0.398-1.578-0.398-2.29,0l0,0c-0.944,0.53-2.129,0.342-2.864-0.454l0,0c-0.553-0.598-1.378-0.867-2.178-0.707l0,0 c-1.062,0.212-2.131-0.333-2.584-1.317l0,0c-0.341-0.74-1.042-1.25-1.852-1.345l0,0L54.998,65.376z"/><path d="M53.282,67.258c-0.579,0-1.164-0.146-1.699-0.446c-0.367-0.205-0.822-0.205-1.188,0c-1.405,0.788-3.149,0.512-4.243-0.672 c-0.285-0.308-0.719-0.448-1.129-0.367c-1.575,0.316-3.154-0.486-3.827-1.949c-0.176-0.382-0.544-0.65-0.96-0.698l-1.119-0.132 l0.263-2.237l1.119,0.132c1.191,0.14,2.242,0.904,2.743,1.994c0.236,0.512,0.792,0.792,1.341,0.683 c1.175-0.233,2.41,0.167,3.224,1.048c0.382,0.415,0.994,0.511,1.487,0.236c1.044-0.588,2.345-0.588,3.391,0 c0.492,0.276,1.103,0.178,1.486-0.235l0.764-0.828l1.654,1.529l-0.764,0.827C55.149,66.873,54.223,67.258,53.282,67.258z"/></g><g><path fill="#fff" d="M65.008,58.104L65.008,58.104c-0.74,0.341-1.25,1.043-1.346,1.852l0,0 c-0.127,1.075-0.975,1.923-2.05,2.05l0,0c-0.81,0.096-1.511,0.605-1.852,1.345l0,0L65.008,58.104z"/><path d="M60.312,64.847l-2.047-0.942l0.471-1.023c0.502-1.09,1.553-1.854,2.743-1.994c0.56-0.066,0.997-0.504,1.063-1.063 c0.141-1.191,0.905-2.242,1.993-2.743l1.023-0.471l0.942,2.046l-1.022,0.471c-0.382,0.176-0.649,0.544-0.699,0.96 c-0.188,1.599-1.437,2.848-3.037,3.038c-0.417,0.049-0.785,0.316-0.961,0.698L60.312,64.847z"/></g><g><path fill="#fff" d="M65.008,40.564L65.008,40.564c0.983,0.453,1.528,1.522,1.317,2.584l0,0 c-0.16,0.799,0.108,1.624,0.707,2.177l0,0c0.795,0.735,0.983,1.919,0.454,2.864l0,0c-0.399,0.711-0.399,1.578,0,2.289l0,0 c0.529,0.945,0.342,2.13-0.454,2.864l0,0L65.008,40.564z"/><path d="M66.968,54.934L65.44,53.28l0.828-0.764c0.414-0.382,0.51-0.994,0.235-1.486c-0.585-1.046-0.585-2.345-0.001-3.39 c0.277-0.492,0.179-1.103-0.234-1.486c-0.881-0.814-1.283-2.05-1.048-3.226c0.11-0.552-0.171-1.104-0.684-1.34l-1.023-0.471 l0.943-2.046l1.023,0.471c1.463,0.674,2.264,2.248,1.949,3.826c-0.082,0.412,0.059,0.845,0.367,1.13 c1.184,1.093,1.46,2.837,0.672,4.243c-0.205,0.365-0.205,0.821,0.001,1.187c0.788,1.405,0.511,3.15-0.673,4.243L66.968,54.934z"/></g><g><path fill="#fff" d="M44.132,40.987c0-0.622,0.504-1.126,1.126-1.126L44.132,40.987z"/><path d="M45.258,42.113h-2.252v-1.126c0-1.242,1.01-2.253,2.252-2.253h1.126v2.253h-1.126V42.113z"/></g><g><path fill="#fff" d="M40.165,50.23c-0.426-0.454-0.404-1.167,0.05-1.592L40.165,50.23z"/><path d="M40.115,51.822L39.343,51c-0.412-0.438-0.628-1.011-0.609-1.613c0.019-0.601,0.272-1.159,0.711-1.571l0.821-0.771 l1.542,1.643l-0.822,0.771l0.771,0.821L40.115,51.822z"/></g><g><path fill="#fff" d="M61.615,52.017c0.426,0.453,0.403,1.166-0.05,1.592L61.615,52.017z"/><path d="M61.513,55.2l-1.541-1.642l0.822-0.771l-0.771-0.821l1.642-1.542l0.771,0.821c0.412,0.438,0.628,1.012,0.609,1.613 c-0.019,0.601-0.272,1.159-0.711,1.571L61.513,55.2z"/></g><g><path fill="#fff" d="M56.539,40.969c0.622,0.02,1.11,0.539,1.09,1.162L56.539,40.969z"/><path d="M58.719,43.292l-2.252-0.072l0.036-1.126l-1.126-0.036l0.071-2.252l1.126,0.036c1.242,0.04,2.22,1.082,2.18,2.323 L58.719,43.292z"/></g><g><path fill="#fff" d="M54.686,58.499L54.686,58.499c-0.477-0.096-0.971,0.065-1.301,0.422h0 c-0.439,0.476-1.147,0.588-1.712,0.271l0,0c-0.425-0.238-0.943-0.238-1.368,0l0,0c-0.565,0.317-1.273,0.205-1.712-0.271l0,0 c-0.33-0.358-0.824-0.518-1.301-0.422l0,0c-0.635,0.126-1.273-0.199-1.544-0.787l0,0c-0.203-0.442-0.623-0.747-1.107-0.804l0,0 c-0.643-0.076-1.15-0.582-1.225-1.225l0,0c-0.057-0.484-0.362-0.903-0.804-1.107l0,0L54.686,58.499z"/><path d="M49.619,60.499c-0.685,0-1.36-0.28-1.852-0.813c-0.065-0.071-0.16-0.101-0.254-0.083 c-1.151,0.229-2.297-0.354-2.787-1.421c-0.04-0.085-0.122-0.145-0.216-0.156c-1.164-0.138-2.074-1.047-2.212-2.212 c-0.011-0.094-0.071-0.176-0.156-0.216l-1.023-0.471l0.942-2.046l1.023,0.471c0.793,0.365,1.349,1.13,1.451,1.998 c0.015,0.125,0.113,0.224,0.239,0.239c0.868,0.103,1.633,0.659,1.998,1.452c0.053,0.115,0.176,0.176,0.301,0.153 c0.854-0.172,1.756,0.121,2.349,0.763c0.086,0.092,0.222,0.114,0.333,0.052c0.761-0.427,1.707-0.427,2.471,0.001 c0.107,0.062,0.247,0.041,0.333-0.054c0.592-0.64,1.492-0.932,2.348-0.763l1.104,0.22l-0.439,2.209l-1.104-0.22 c-0.094-0.02-0.189,0.012-0.254,0.083c-0.796,0.861-2.066,1.063-3.09,0.489c-0.083-0.047-0.183-0.048-0.266-0.001 C50.466,60.393,50.04,60.499,49.619,60.499z"/></g></svg>